Coordinates
version=1
nRows=4
nColumns=63
inDegrees=yes

Units are S.I. units (second, meters, Newtons, ...)
If the header above contains a line with 'inDegrees', this indicates whether rotational values are in degrees (yes) or radians (no).

endheader
time	pelvis_tilt	pelvis_list	pelvis_rotation	pelvis_tx	pelvis_ty	pelvis_tz	hip_flexion_r	hip_adduction_r	hip_rotation_r	knee_angle_r	knee_angle_r_beta	ankle_angle_r	subtalar_angle_r	mtp_angle_r	hip_flexion_l	hip_adduction_l	hip_rotation_l	knee_angle_l	knee_angle_l_beta	ankle_angle_l	subtalar_angle_l	mtp_angle_l	L5_S1_Flex_Ext	L5_S1_Lat_Bending	L5_S1_axial_rotation	L4_L5_Flex_Ext	L4_L5_Lat_Bending	L4_L5_axial_rotation	L3_L4_Flex_Ext	L3_L4_Lat_Bending	L3_L4_axial_rotation	L2_L3_Flex_Ext	L2_L3_Lat_Bending	L2_L3_axial_rotation	L1_L2_Flex_Ext	L1_L2_Lat_Bending	L1_L2_axial_rotation	L1_T12_Flex_Ext	L1_T12_Lat_Bending	L1_T12_axial_rotation	Abs_r3	Abs_r2	Abs_r1	Abs_t1	Abs_t2	neck_flexion	neck_bending	neck_rotation	arm_flex_r	arm_add_r	arm_rot_r	elbow_flex_r	pro_sup_r	wrist_flex_r	wrist_dev_r	arm_flex_l	arm_add_l	arm_rot_l	elbow_flex_l	pro_sup_l	wrist_flex_l	wrist_dev_l
      1.03773585	     -0.15453776	     -1.68011567	     89.24173492	      0.23218265	      0.78861395	      0.74545266	     -1.38329547	      0.03512395	      8.96120880	      7.67877833	      0.13401996	     39.20372922	     -9.97267947	      0.00000000	     -1.91374845	     -3.01604837	     25.10367405	      1.71394005	      0.02991390	     37.74424130	    -15.51316822	      0.00000000	      0.25142121	      0.46607071	     -0.02015648	      0.46691433	      0.61987404	     -0.02141626	      0.41305991	      1.13320432	     -0.02141626	      0.28734930	      1.13320432	     -0.01763692	      0.23346974	      0.95041139	     -0.01637714	      0.14366208	      0.72194353	     -0.01511736	      1.79587657	      5.27228508	     -0.11210430	      0.00000000	      0.00000000	     27.98942837	     -3.62164981	      9.01386810	      3.43709067	    -21.15991522	     45.33751545	     24.24470119	     70.87885390	    -14.41212791	     -0.86834445	      6.24194525	    -16.57709019	     24.95009150	     55.55058250	     88.73403213	     -8.08165385	     -3.03455407
      1.05660377	      0.06932450	     -1.13298001	     89.57112965	      0.23150702	      0.79045170	      0.74220284	     -2.46742228	      0.25816519	      8.87043641	      7.15456567	      0.12487073	     38.80001646	    -10.13609006	      0.00000000	     -2.75681281	     -3.29585149	     25.52101701	      1.44131931	      0.02515577	     37.65982792	    -15.54535744	      0.00000000	      0.21263975	      0.51165187	     -0.04522860	      0.39489327	      0.68049698	     -0.04805539	      0.34934584	      1.24403035	     -0.04805539	      0.24302596	      1.24403035	     -0.03957503	      0.19745727	      1.04336049	     -0.03674824	      0.12150235	      0.79254874	     -0.03392145	      1.51886444	      5.78790826	     -0.25154791	      0.00000000	      0.00000000	     27.90443456	     -3.75311540	      9.70418667	      2.04854680	    -21.86812664	     44.38311105	     23.16359353	     68.73062006	    -15.48989131	     -0.72649248	      4.81470385	    -17.94581233	     18.66953846	     58.35647226	     88.57210562	     -8.65758531	     -1.46127265
      1.07547170	      0.34912589	     -0.51316653	     89.99151028	      0.23056420	      0.79264571	      0.73897516	     -3.63307433	      0.54148252	      8.74399388	      6.59216200	      0.11505493	     38.37196821	    -10.29355777	      0.00000000	     -3.63413689	     -3.64208346	     25.95262318	      1.21156981	      0.02114588	     37.63242430	    -15.50049856	      0.00000000	      0.15582807	      0.56649692	     -0.11157822	      0.28938831	      0.75344090	     -0.11855185	      0.25600994	      1.37738061	     -0.11855185	      0.17809590	      1.37738061	     -0.09763094	      0.14470195	      1.15520051	     -0.09065730	      0.08904016	      0.87750373	     -0.08368366	      1.11306434	      6.40832643	     -0.62056456	      0.00000000	      0.00000000	     27.76176334	     -3.95353326	     10.10485287	      0.48489642	    -22.58691067	     42.37148836	     22.25582878	     66.53331704	    -17.24466052	     -1.57106881	      3.38511016	    -19.30412143	     12.33546389	     61.16060250	     88.36275414	     -9.69225516	      0.53306769
      1.09433962	      0.64822813	      0.09057083	     90.61504869	      0.22952685	      0.79494726	      0.73597092	     -4.70606668	      0.90467908	      8.63282669	      6.18077559	      0.10787488	     37.92780030	    -10.67226862	      0.00000000	     -4.42136026	     -4.03576399	     26.54937134	      1.07547910	      0.01877065	     37.51774602	    -15.51506082	      0.00000000	      0.09470782	      0.61856872	     -0.24456810	      0.17588189	      0.82269640	     -0.25985361	      0.15559548	      1.50398799	     -0.25985361	      0.10824157	      1.50398799	     -0.21399709	      0.08794568	      1.26138533	     -0.19871158	      0.05411605	      0.95816295	     -0.18342607	      0.67648849	      6.99737308	     -1.36021440	      0.00000000	      0.00000000	     27.55855088	     -3.96566748	     10.43106249	     -1.26943461	    -23.28214085	     38.28587758	     21.96973104	     64.22969219	    -19.52519955	     -3.74180512	      1.67921240	    -20.90237365	      5.82709106	     64.24284301	     88.28797172	    -10.19119805	      3.69838296
